<?xml version="1.0" encoding="utf-8"?>
<!-- Generator: Adobe Illustrator 22.1.0, SVG Export Plug-In . SVG Version: 6.00 Build 0)  -->
<svg version="1.1" id="Capa_1" xmlns="http://www.w3.org/2000/svg" xmlns:xlink="http://www.w3.org/1999/xlink" x="0px" y="0px"
	 viewBox="0 0 512 512" style="enable-background:new 0 0 512 512;" xml:space="preserve">
<style type="text/css">
	.st0{fill:none;stroke:#6FA8FA;stroke-width:8;stroke-miterlimit:10;}
	.st1{fill:none;stroke:#6FA8FA;stroke-width:5;stroke-miterlimit:10;}
	.st2{fill:none;stroke:#DBE9F6;stroke-width:5;stroke-miterlimit:10;}
	.st3{fill:#2985FD;}
</style>
<polygon class="st0" points="61.1,424.9 53.3,418.1 43.3,420.7 47.3,411.2 41.8,402.4 52.1,403.3 58.7,395.4 61,405.4 70.6,409.3 
	61.8,414.6 "/>
<polygon class="st1" points="356,447.7 344.4,448.2 338.3,458.1 334.2,447.2 322.9,444.4 332,437.2 331.2,425.6 340.9,432 
	351.6,427.6 348.5,438.8 "/>
<polygon class="st1" points="52.6,78.4 49.1,75.7 44.8,77.1 46.3,72.9 43.6,69.3 48.1,69.4 50.7,65.8 52,70.1 56.2,71.4 52.6,74 "/>
<polygon class="st1" points="302.4,60.3 300,55.5 294.8,54.8 298.6,51.1 297.7,45.8 302.4,48.3 307.1,45.8 306.2,51.1 310,54.8 
	304.8,55.5 "/>
<polygon class="st1" points="452.3,268 448.7,260.7 440.8,259.6 446.5,253.9 445.2,246 452.3,249.7 459.5,246 458.1,253.9 
	463.9,259.6 455.9,260.7 "/>
<circle class="st2" cx="148.4" cy="468.3" r="14.6"/>
<circle class="st2" cx="65.1" cy="217.1" r="6.1"/>
<circle class="st2" cx="124.8" cy="97.8" r="14.2"/>
<circle class="st2" cx="451.4" cy="122.6" r="10.6"/>
<circle class="st2" cx="431" cy="40.5" r="5.3"/>
<circle class="st2" cx="431" cy="389" r="11.5"/>
<g>
	<path class="st3" d="M405,299.3V198.7c0-2.2-1.4-4.1-3.6-4.8l-46.5-13.8c3.6-8.8,5.8-17.6,5.8-25.7c0-33.9-27.5-61.4-61.4-61.4
		s-61.4,27.5-61.4,61.4c0,8.1,2.2,16.9,5.8,25.7l-45.1,13.4L99.4,164c-1.5-0.4-3.1-0.2-4.4,0.8c-1.3,0.9-2,2.4-2,4v100.7
		c0,0,0,0,0,0v100.6c0,2.2,1.4,4.1,3.6,4.8l100.6,29.9c0,0,0.1,0,0.1,0c0,0,0,0,0,0c0.2,0.1,0.4,0.1,0.6,0.1c0.1,0,0.1,0,0.2,0
		c0.2,0,0.4,0,0.6,0c0.2,0,0.4,0,0.7,0c0.1,0,0.1,0,0.2,0c0.2,0,0.4-0.1,0.6-0.1c0,0,0,0,0,0l0,0c0,0,97.2-28.8,97.2-28.8
		c0.6,0.3,1.3,0.4,2,0.4s1.4-0.2,2-0.4l97.2,28.9c0.5,0.1,0.9,0.2,1.4,0.2c1.1,0,2.1-0.3,3-1c1.3-0.9,2-2.4,2-4L405,299.3
		C405,299.3,405,299.3,405,299.3L405,299.3z M395,202.4v90.3l-90.7-26.9v-14.2c6.5-6.7,32-33.9,46.4-62.4L395,202.4L395,202.4z
		 M299.3,103c28.4,0,51.4,23.1,51.4,51.4c0,8.1-2.7,17.1-6.9,26.2c-0.2,0.3-0.4,0.7-0.5,1.1c-12,25.3-35.2,51.3-44,60.7
		c-8.8-9.4-32-35.3-44-60.6c-0.1-0.4-0.3-0.8-0.6-1.2c-4.2-9.1-6.9-18.1-6.9-26.2C247.9,126,271,103,299.3,103z M294.4,251.6v14.2
		l-90.7,26.9v-90.3l44.3-13.2C262.4,217.7,287.9,244.9,294.4,251.6z M103,276.1l34.4,10.2c0.5,0.1,0.9,0.2,1.4,0.2
		c2.1,0,4.1-1.4,4.8-3.6c0.8-2.6-0.7-5.4-3.4-6.2l-37.2-11v-90.3l90.7,26.9v90.3l-34.4-10.2c-2.6-0.8-5.4,0.7-6.2,3.4
		c-0.8,2.6,0.7,5.4,3.4,6.2l37.2,11v90.3L103,366.4V276.1L103,276.1z M304.3,366.4v-36c0-2.7-2.2-5-5-5s-5,2.2-5,5v36l-90.7,26.9
		v-90.3l90.7-26.9v34.3c0,2.7,2.2,5,5,5s5-2.2,5-5v-34.3l90.7,26.9v90.3L304.3,366.4z"/>
	<path class="st3" d="M299.3,189.3c19.2,0,34.9-15.6,34.9-34.9c0-19.2-15.6-34.9-34.9-34.9s-34.9,15.6-34.9,34.9
		C264.5,173.6,280.1,189.3,299.3,189.3z M299.3,129.5c13.7,0,24.9,11.2,24.9,24.9c0,13.7-11.2,24.9-24.9,24.9s-24.9-11.2-24.9-24.9
		C274.4,140.7,285.6,129.5,299.3,129.5z"/>
</g>
</svg>
