<?xml version="1.0" encoding="utf-8"?>
<!-- Generator: Adobe Illustrator 22.1.0, SVG Export Plug-In . SVG Version: 6.00 Build 0)  -->
<svg version="1.1" id="Layer_1" xmlns="http://www.w3.org/2000/svg" xmlns:xlink="http://www.w3.org/1999/xlink" x="0px" y="0px"
	 viewBox="0 0 1366 600" style="enable-background:new 0 0 1366 600;" xml:space="preserve">
<style type="text/css">
	.st0{fill:url(#SVGID_1_);stroke:#FFFFFF;stroke-width:2;stroke-miterlimit:10;}
	.st1{fill:url(#SVGID_2_);stroke:#FFFFFF;stroke-width:2;stroke-miterlimit:10;}
	.st2{fill:#6FA8FA;stroke:#FFFFFF;stroke-width:2;stroke-miterlimit:10;}
</style>
<g>
	<linearGradient id="SVGID_1_" gradientUnits="userSpaceOnUse" x1="790.885" y1="930.8126" x2="715.8384" y2="73.0264">
		<stop  offset="0" style="stop-color:#2985FD"/>
		<stop  offset="0.5154" style="stop-color:#2985FD"/>
		<stop  offset="1" style="stop-color:#2985FD;stop-opacity:0.15"/>
	</linearGradient>
	<path class="st0" d="M-45.8,464.1c51.3,29.3,99.9,44.1,144.4,44.1c16.9,0,33.4-2.2,49.1-6.4c53.6-14.5,80.8-47.8,109.6-83
		c27.2-33.4,55.4-67.9,108.3-84.9c16.9-5.4,32.9-8.1,49-8.1c31.7,0,57.9,10.2,85.7,21c28.2,11,57.3,22.3,92.9,22.3
		c15.2,0,30.3-2,46.2-6.1c63.9-16.5,92.9-55.9,120.9-94c27.4-37.3,55.7-75.8,116.9-94.3c20.2-6.1,40.4-9.1,61.9-9.1
		c45.4,0,87.4,13.8,124.5,26c30.7,10.1,59.6,19.6,85.5,19.6c20.4,0,37.6-6,52.5-18.2c22.3-18.3,30.5-42.9,39.2-68.9
		c10.5-31.3,21.3-63.6,58.2-86.7c23.2-14.5,51.1-21.9,83-21.9c2.2,0,4.5,0,6.8,0.1l164,527.3l-1435,446.8L-45.8,464.1z"/>
	<linearGradient id="SVGID_2_" gradientUnits="userSpaceOnUse" x1="790.7009" y1="932.0588" x2="715.4579" y2="72.0281">
		<stop  offset="0" style="stop-color:#2985FD"/>
		<stop  offset="0.5154" style="stop-color:#2985FD"/>
		<stop  offset="1" style="stop-color:#2985FD;stop-opacity:0.15"/>
	</linearGradient>
	<path class="st1" d="M1381.8,14.5v2c2,0,4,0,6.1,0.1l81.9,263.1l81.7,262.6L118.4,988.4L-44.1,466.2c50.6,28.5,98.6,43,142.7,43
		c17,0,33.6-2.2,49.4-6.4c53.9-14.6,82.5-49.6,110.1-83.4c27.2-33.3,55.2-67.7,107.9-84.6c16.8-5.4,32.7-8,48.7-8
		c31.5,0,57.6,10.2,85.3,20.9c28.3,11,57.5,22.3,93.3,22.3c15.3,0,30.4-2,46.5-6.1c64.3-16.6,93.3-56.1,121.4-94.3
		c13.7-18.6,27.8-37.8,45.8-54.3c20.2-18.5,43.3-31.4,70.6-39.7c20.1-6.1,40.3-9,61.6-9c45.3,0,87.2,13.8,124.2,25.9
		c30.7,10.1,59.8,19.7,85.8,19.7c20.6,0,38-6,53.1-18.4c22.5-18.5,30.8-43.2,39.5-69.4c10.4-31.1,21.2-63.3,57.8-86.2
		c23-14.4,50.8-21.7,82.4-21.7v-2 M1381.8,14.5c-22.9,0-54.3,3.7-83.5,22c-67.5,42.3-48.4,115.3-97.5,155.7
		c-15.9,13.1-33.1,18-51.8,18c-56.9,0-126.7-45.6-210-45.6c-19.9,0-40.7,2.6-62.2,9.1C752.3,211.3,764.6,329.6,639.1,362
		c-16.6,4.3-31.8,6.1-46,6.1c-69.7,0-113.7-43.3-178.6-43.3c-15.1,0-31.3,2.3-49.3,8.1c-107.4,34.6-112.2,139.4-217.9,168
		c-16.5,4.4-32.8,6.4-48.9,6.4c-57.2,0-109.9-24.4-146.1-45.3L117,991l1437-447.3c-54.9-176.3-109.8-352.6-164.7-529
		C1387,14.5,1384.5,14.5,1381.8,14.5L1381.8,14.5z"/>
</g>
<g>
	<circle class="st2" cx="114" cy="507.5" r="6.5"/>
	<path class="st2" d="M114,502c3,0,5.5,2.5,5.5,5.5S117,513,114,513s-5.5-2.5-5.5-5.5S111,502,114,502 M114,500
		c-4.1,0-7.5,3.4-7.5,7.5s3.4,7.5,7.5,7.5s7.5-3.4,7.5-7.5S118.1,500,114,500L114,500z"/>
</g>
<g>
	<circle class="st2" cx="381" cy="329" r="8"/>
	<path class="st2" d="M381,322c3.9,0,7,3.1,7,7s-3.1,7-7,7s-7-3.1-7-7S377.1,322,381,322 M381,320c-5,0-9,4-9,9s4,9,9,9s9-4,9-9
		S386,320,381,320L381,320z"/>
</g>
<g>
	<ellipse class="st2" cx="632" cy="364.5" rx="7" ry="7.5"/>
	<path class="st2" d="M632,358c3.3,0,6,2.9,6,6.5s-2.7,6.5-6,6.5s-6-2.9-6-6.5S628.7,358,632,358 M632,356c-4.4,0-8,3.8-8,8.5
		s3.6,8.5,8,8.5s8-3.8,8-8.5S636.4,356,632,356L632,356z"/>
</g>
<g>
	<ellipse class="st2" cx="895" cy="171" rx="7.5" ry="8"/>
	<path class="st2" d="M895,164c3.6,0,6.5,3.1,6.5,7s-2.9,7-6.5,7s-6.5-3.1-6.5-7S891.4,164,895,164 M895,162c-4.7,0-8.5,4-8.5,9
		s3.8,9,8.5,9s8.5-4,8.5-9S899.7,162,895,162L895,162z"/>
</g>
<g>
	<ellipse class="st2" cx="1170" cy="209" rx="7.5" ry="8"/>
	<path class="st2" d="M1170,202c3.6,0,6.5,3.1,6.5,7s-2.9,7-6.5,7s-6.5-3.1-6.5-7S1166.4,202,1170,202 M1170,200c-4.7,0-8.5,4-8.5,9
		s3.8,9,8.5,9s8.5-4,8.5-9S1174.7,200,1170,200L1170,200z"/>
</g>
<g>
	<ellipse class="st2" cx="1326" cy="26" rx="8" ry="8.5"/>
	<path class="st2" d="M1326,18.5c3.9,0,7,3.4,7,7.5s-3.1,7.5-7,7.5s-7-3.4-7-7.5S1322.1,18.5,1326,18.5 M1326,16.5c-5,0-9,4.3-9,9.5
		s4,9.5,9,9.5s9-4.3,9-9.5S1331,16.5,1326,16.5L1326,16.5z"/>
</g>
</svg>
