<?xml version="1.0" encoding="utf-8"?>
<!-- Generator: Adobe Illustrator 22.1.0, SVG Export Plug-In . SVG Version: 6.00 Build 0)  -->
<svg version="1.1" id="Capa_1" xmlns="http://www.w3.org/2000/svg" xmlns:xlink="http://www.w3.org/1999/xlink" x="0px" y="0px"
	 viewBox="0 0 512 512" style="enable-background:new 0 0 512 512;" xml:space="preserve">
<style type="text/css">
	.st0{fill:none;stroke:#6FA8FA;stroke-width:8;stroke-miterlimit:10;}
	.st1{fill:none;stroke:#6FA8FA;stroke-width:5;stroke-miterlimit:10;}
	.st2{fill:none;stroke:#DBE9F6;stroke-width:5;stroke-miterlimit:10;}
	.st3{fill:#2985FD;}
</style>
<polygon class="st0" points="61.1,424.9 53.3,418.1 43.3,420.7 47.3,411.2 41.8,402.4 52.1,403.3 58.7,395.4 61,405.4 70.6,409.3 
	61.8,414.6 "/>
<polygon class="st1" points="356,447.7 344.4,448.2 338.3,458.1 334.2,447.2 322.9,444.4 332,437.2 331.2,425.6 340.9,432 
	351.6,427.6 348.5,438.8 "/>
<polygon class="st1" points="52.6,78.4 49.1,75.7 44.8,77.1 46.3,72.9 43.6,69.3 48.1,69.4 50.7,65.8 52,70.1 56.2,71.4 52.6,74 "/>
<polygon class="st1" points="302.4,60.3 300,55.5 294.8,54.8 298.6,51.1 297.7,45.8 302.4,48.3 307.1,45.8 306.2,51.1 310,54.8 
	304.8,55.5 "/>
<polygon class="st1" points="452.3,268 448.7,260.7 440.8,259.6 446.5,253.9 445.2,246 452.3,249.7 459.5,246 458.1,253.9 
	463.9,259.6 455.9,260.7 "/>
<circle class="st2" cx="148.4" cy="468.3" r="14.6"/>
<circle class="st2" cx="65.1" cy="217.1" r="6.1"/>
<circle class="st2" cx="124.8" cy="97.8" r="14.2"/>
<circle class="st2" cx="451.4" cy="122.6" r="10.6"/>
<circle class="st2" cx="431" cy="40.5" r="5.3"/>
<circle class="st2" cx="431" cy="389" r="11.5"/>
<g>
	<g>
		<path class="st3" d="M346.6,154l-3.3-23.4c-0.2-1.2-0.8-2.2-1.7-3c-1-0.7-2.2-1-3.3-0.8l-25.8,3.9c-2.4,0.4-4.1,2.6-3.7,5.1
			c0.4,2.4,2.6,4.1,5.1,3.7l15-2.3c-20.1,24.8-41.7,46-64.3,62.9c-19.7,14.7-40.2,26.4-60.9,34.5c-35.3,13.9-59.4,13-59.7,13
			c-2.5-0.1-4.5,1.8-4.7,4.2c-0.1,2.5,1.8,4.5,4.2,4.7c0.1,0,0.8,0,1.8,0c6.4,0,29.2-1,61-13.4c21.6-8.4,42.8-20.4,63.2-35.7
			c23.4-17.5,45.8-39.4,66.5-65l1.8,12.7c0.3,2.2,2.2,3.8,4.4,3.8c0.2,0,0.4,0,0.6,0C345.3,158.7,347,156.5,346.6,154z"/>
	</g>
</g>
<g>
	<g>
		<path class="st3" d="M396.8,366.7h-35.9c3-2,5.7-4.2,8.3-6.8c10.1-10.1,15.7-23.6,15.7-37.9c0-14.3-5.6-27.8-15.7-37.9
			c-3.6-3.6-7.6-6.6-11.9-8.9v-18c0-2.5-2-4.4-4.4-4.4c-2.5,0-4.4,2-4.4,4.4v14c-12.2-4.1-25.4-3.7-37.3,1.1v-54.6c0-0.6,0.5-1,1-1
			h35.2c0.6,0,1,0.5,1,1v11c0,2.5,2,4.4,4.4,4.4c2.5,0,4.4-2,4.4-4.4v-11c0-5.5-4.5-9.9-9.9-9.9h-35.2c-5.5,0-9.9,4.5-9.9,9.9v59.3
			c-3.2,2-6.1,4.4-8.9,7.2c-10.1,10.1-15.7,23.6-15.7,37.9c0,14.3,5.6,27.8,15.7,37.9c2.6,2.6,5.4,4.8,8.3,6.8h-28.1V258
			c0-5.5-4.5-9.9-9.9-9.9h-35.2c-5.5,0-9.9,4.5-9.9,9.9v108.7h-28.7v-72.1c0-5.5-4.5-9.9-9.9-9.9h-35.2c-5.5,0-9.9,4.5-9.9,9.9v72.1
			h-18.3V138c0-4.5-3.7-8.2-8.2-8.2h-7c-4.5,0-8.2,3.7-8.2,8.2v31.6c0,2.5,2,4.4,4.4,4.4s4.4-2,4.4-4.4v-30.9h5.7v228.7
			c0,4.5,3.7,8.2,8.2,8.2h280.3v6.7H101.9V197.7c0-2.5-2-4.4-4.4-4.4s-4.4,2-4.4,4.4V383c0,4.5,3.7,8.2,8.2,8.2h295.6
			c4.5,0,8.2-3.7,8.2-8.2v-8.1C405,370.4,401.3,366.7,396.8,366.7z M180.9,366.7L180.9,366.7h-37.3v-72.1c0-0.6,0.5-1,1-1h35.2
			c0.6,0,1,0.5,1,1V366.7L180.9,366.7z M227.4,366.7V258c0-0.6,0.5-1,1-1h35.2c0.6,0,1,0.5,1,1v108.7L227.4,366.7L227.4,366.7z
			 M350.9,362.2c-4.5,2.2-9.4,3.6-14.4,4.2c-0.1,0-0.2,0-0.3,0c-0.3,0-0.7,0.1-1,0.1c-0.5,0-1,0.1-1.6,0.1c-0.2,0-0.3,0-0.5,0
			c-0.6,0-1.3,0-1.9,0c-0.6,0-1.3,0-1.9,0c-0.2,0-0.4,0-0.6,0c-0.5,0-1-0.1-1.4-0.1c-0.4,0-0.8-0.1-1.2-0.1c-0.3,0-0.6-0.1-0.9-0.1
			c-0.4-0.1-0.8-0.1-1.2-0.2c-0.1,0-0.1,0-0.2,0c-5.2-0.9-10.3-2.7-14.9-5.4c0,0,0,0-0.1,0c-3.3-1.9-6.4-4.3-9.2-7.1
			c-8.4-8.4-13.1-19.7-13.1-31.6c0-11.9,4.7-23.2,13.1-31.6c3.2-3.2,6.8-5.9,10.7-7.9c0.1-0.1,0.2-0.1,0.3-0.2
			c6.4-3.3,13.5-5,20.6-5c5.7,0,11.3,1.1,16.7,3.2c0.1,0,0.2,0.1,0.3,0.1c0.6,0.2,1.1,0.5,1.6,0.7c0.2,0.1,0.4,0.2,0.7,0.3
			c4.5,2.1,8.7,5,12.4,8.7c17.4,17.4,17.4,45.8,0,63.2c-3.5,3.5-7.5,6.3-11.8,8.5C351,362.1,351,362.1,350.9,362.2z"/>
	</g>
</g>
<g>
	<g>
		<path class="st3" d="M333.3,317.7v-15.8c5.5,0.4,7.5,2.9,9.4,2.9c2.3,0,3.4-3,3.4-4.4c0-3.8-7.5-5.5-12.8-5.6v-2.1
			c0-0.9-1.2-1.8-2.3-1.8c-1.3,0-2.3,0.9-2.3,1.8v2.3c-7.4,0.8-14.8,4.7-14.8,14.5c0,10,7.8,12.8,14.8,15.3V343
			c-8-0.6-10.1-6.1-12.6-6.1c-2,0-3.6,2.6-3.6,4.4c0,3.8,6.6,9.1,16.2,9.2h0v2.4c0,0.9,0.9,1.8,2.3,1.8c1.2,0,2.3-0.9,2.3-1.8v-2.7
			c8.4-1.2,14.2-6.5,14.2-16.1C347.5,323.6,340.1,320.2,333.3,317.7z M329.2,316.2c-4.1-1.6-7.5-3.2-7.5-7.6c0-4.1,3.1-6,7.5-6.6
			V316.2z M332.9,342.8v-16.5c3.8,1.6,6.9,3.8,6.9,8.7C339.7,339.5,337.1,342,332.9,342.8z"/>
	</g>
</g>
</svg>
