<?xml version="1.0" encoding="utf-8"?>
<!-- Generator: Adobe Illustrator 22.1.0, SVG Export Plug-In . SVG Version: 6.00 Build 0)  -->
<svg version="1.1" id="Capa_1" xmlns="http://www.w3.org/2000/svg" xmlns:xlink="http://www.w3.org/1999/xlink" x="0px" y="0px"
	 viewBox="0 0 512 512" style="enable-background:new 0 0 512 512;" xml:space="preserve">
<style type="text/css">
	.st0{fill:none;stroke:#6FA8FA;stroke-width:8;stroke-miterlimit:10;}
	.st1{fill:none;stroke:#6FA8FA;stroke-width:5;stroke-miterlimit:10;}
	.st2{fill:none;stroke:#DBE9F6;stroke-width:5;stroke-miterlimit:10;}
	.st3{fill:#2985FD;}
</style>
<polygon class="st0" points="61.1,424.9 53.3,418.1 43.3,420.7 47.3,411.2 41.8,402.4 52.1,403.3 58.7,395.4 61,405.4 70.6,409.3 
	61.8,414.6 "/>
<polygon class="st1" points="356,447.7 344.4,448.2 338.3,458.1 334.2,447.2 322.9,444.4 332,437.2 331.2,425.6 340.9,432 
	351.6,427.6 348.5,438.8 "/>
<polygon class="st1" points="52.6,78.4 49.1,75.7 44.8,77.1 46.3,72.9 43.6,69.3 48.1,69.4 50.7,65.8 52,70.1 56.2,71.4 52.6,74 "/>
<polygon class="st1" points="302.4,60.3 300,55.5 294.8,54.8 298.6,51.1 297.7,45.8 302.4,48.3 307.1,45.8 306.2,51.1 310,54.8 
	304.8,55.5 "/>
<polygon class="st1" points="452.3,268 448.7,260.7 440.8,259.6 446.5,253.9 445.2,246 452.3,249.7 459.5,246 458.1,253.9 
	463.9,259.6 455.9,260.7 "/>
<circle class="st2" cx="148.4" cy="468.3" r="14.6"/>
<circle class="st2" cx="65.1" cy="217.1" r="6.1"/>
<circle class="st2" cx="124.8" cy="97.8" r="14.2"/>
<circle class="st2" cx="451.4" cy="122.6" r="10.6"/>
<circle class="st2" cx="431" cy="40.5" r="5.3"/>
<circle class="st2" cx="431" cy="389" r="11.5"/>
<g>
	<g>
		<path class="st3" d="M407.3,254.5c-5.1-9.1-11.1-17.8-17.8-25.9c-1.8-2.2-5-2.5-7.2-0.7c-2.2,1.8-2.5,5-0.7,7.2
			c5.7,6.9,10.8,14.3,15.3,22c-19.8,33.8-50.3,59.1-85.6,72.6c21.1-17.2,34.5-43.4,34.5-72.6c0-29.3-13.5-55.4-34.6-72.7
			c18,6.9,34.9,16.8,49.7,29.6c2.1,1.8,5.3,1.6,7.2-0.5c1.8-2.1,1.6-5.3-0.5-7.2c-31.6-27.2-71.6-42.4-113-43c-0.9,0-1.7,0-2.6,0
			c-0.2,0-0.4,0-0.7,0c-32,0.1-63.3,8.8-90.7,25.3c-26.6,16-48.8,38.8-64.1,66c-0.9,1.6-0.9,3.5,0,5c15.4,27.2,37.5,50,64.1,66
			c27.4,16.5,58.8,25.2,90.9,25.3h0.3c32.1,0,63.6-8.7,91.1-25.2c26.7-16,48.9-38.9,64.3-66.1C408.2,258,408.2,256.1,407.3,254.5z
			 M107,257c19.9-33.9,50.6-59.3,86.1-72.8c-21.2,17.2-34.7,43.4-34.7,72.8c0,29.4,13.6,55.6,34.8,72.8
			C157.6,316.4,126.9,290.9,107,257z M252.1,340.6c-46.1,0-83.6-37.5-83.6-83.6c0-45.9,37.1-83.2,82.9-83.6c0.1,0,0.2,0,0.2,0h0.3
			c0.8,0,1.7,0,2.5,0c45,1.2,81.3,38.3,81.3,83.6C335.8,303.1,298.3,340.6,252.1,340.6z"/>
	</g>
</g>
<g>
	<g>
		<path class="st3" d="M174.1,155.4l-9.8-19.9c-1.2-2.5-4.3-3.6-6.8-2.3c-2.5,1.2-3.6,4.3-2.3,6.8l9.8,19.9c0.9,1.8,2.7,2.8,4.6,2.8
			c0.8,0,1.5-0.2,2.2-0.5C174.3,161,175.3,157.9,174.1,155.4z"/>
	</g>
</g>
<g>
	<g>
		<path class="st3" d="M204.2,127.7c-2.7-0.9-5.5,0.5-6.4,3.2l-7.1,21c-0.9,2.7,0.5,5.5,3.2,6.4c0.5,0.2,1.1,0.3,1.6,0.3
			c2.1,0,4.1-1.3,4.8-3.5l7.1-21C208.3,131.4,206.8,128.6,204.2,127.7z"/>
	</g>
</g>
<g>
	<g>
		<path class="st3" d="M152.1,171l-21-7.1c-2.7-0.9-5.5,0.5-6.5,3.2c-0.9,2.7,0.5,5.5,3.2,6.5l21,7.1c0.5,0.2,1.1,0.3,1.6,0.3
			c2.1,0,4.1-1.3,4.8-3.5C156.2,174.8,154.8,171.9,152.1,171z"/>
	</g>
</g>
<g>
	<g>
		<path class="st3" d="M344.4,374l-9.8-19.9c-1.2-2.5-4.3-3.6-6.8-2.3c-2.5,1.2-3.6,4.3-2.3,6.8l9.8,19.9c0.9,1.8,2.7,2.8,4.6,2.8
			c0.8,0,1.5-0.2,2.2-0.5C344.6,379.6,345.7,376.5,344.4,374z"/>
	</g>
</g>
<g>
	<g>
		<path class="st3" d="M305.7,355.7c-2.7-0.9-5.5,0.5-6.4,3.2l-7.1,21c-0.9,2.7,0.5,5.5,3.2,6.4c0.5,0.2,1.1,0.3,1.6,0.3
			c2.1,0,4.1-1.3,4.8-3.5l7.1-21C309.8,359.4,308.4,356.6,305.7,355.7z"/>
	</g>
</g>
<g>
	<g>
		<path class="st3" d="M371.7,340.5l-21-7.1c-2.7-0.9-5.5,0.5-6.5,3.2c-0.9,2.7,0.5,5.5,3.2,6.5l21,7.1c0.5,0.2,1.1,0.3,1.6,0.3
			c2.1,0,4.1-1.3,4.8-3.5C375.7,344.3,374.3,341.4,371.7,340.5z"/>
	</g>
</g>
<g>
	<g>
		<path class="st3" d="M307.4,264.2c-2.7-0.6-5.5,1.1-6.1,3.9c-5.1,22.8-25.8,39.4-49.2,39.4c-27.8,0-50.4-22.6-50.4-50.4
			s22.6-50.4,50.4-50.4c20.3,0,38.5,12.1,46.4,30.8c1.1,2.6,4.1,3.8,6.7,2.7c2.6-1.1,3.8-4.1,2.7-6.7c-9.5-22.5-31.4-37-55.8-37
			c-33.4,0-60.6,27.2-60.6,60.6s27.2,60.6,60.6,60.6c13.9,0,27.4-4.8,38.1-13.5c10.6-8.6,18-20.6,21-33.8
			C311.9,267.5,310.1,264.8,307.4,264.2z"/>
	</g>
</g>
<g>
	<g>
		<path class="st3" d="M256.7,251.9v-22.4c5,1.7,8.6,5.8,8.6,10.7c0,2.8,2.3,5.1,5.1,5.1c2.8,0,5.1-2.3,5.1-5.1
			c0-10.4-8.1-19-18.8-21.2v-2c0-2.8-2.3-5.1-5.1-5.1c-2.8,0-5.1,2.3-5.1,5.1v2c-10.7,2.1-18.8,10.8-18.8,21.2
			c0,10.4,8.1,19,18.8,21.2v22.4c-5-1.7-8.6-5.8-8.6-10.7c0-2.8-2.3-5.1-5.1-5.1c-2.8,0-5.1,2.3-5.1,5.1c0,10.4,8.1,19,18.8,21.2
			v2.9c0,2.8,2.3,5.1,5.1,5.1c2.8,0,5.1-2.3,5.1-5.1v-2.9c10.7-2.1,18.8-10.8,18.8-21.2C275.5,262.7,267.4,254,256.7,251.9z
			 M246.5,250.8c-5-1.7-8.6-5.8-8.6-10.7c0-4.8,3.6-9,8.6-10.7V250.8z M256.7,283.7v-21.3c5,1.7,8.6,5.8,8.6,10.7
			C265.3,277.9,261.7,282,256.7,283.7z"/>
	</g>
</g>
</svg>
