<svg data-v-423bf9ae="" xmlns="http://www.w3.org/2000/svg" viewBox="0 0 363 95" class="iconLeft"><!----><!----><!----><g data-v-423bf9ae="" id="d41eb54f-2cb3-4817-b44e-f9228902744b" fill="white" transform="matrix(4.34143590927124,0,0,4.34143590927124,100.85392761230469,3.7877206802368164)"><path d="M0.98 14.08L3.21 14.08L3.21 7.71L5.56 13.10L7.18 13.10L9.53 7.71L9.55 14.08L11.75 14.08L11.75 4.27L9.03 4.27L6.37 10.11L3.71 4.27L0.98 4.27ZM13.08 10.30C13.08 12.63 14.73 14.17 17.21 14.17C19.67 14.17 21.32 12.63 21.32 10.30C21.32 7.98 19.67 6.45 17.21 6.45C14.73 6.45 13.08 7.98 13.08 10.30ZM15.51 10.33C15.51 9.17 16.20 8.37 17.21 8.37C18.20 8.37 18.89 9.17 18.89 10.33C18.89 11.51 18.20 12.29 17.21 12.29C16.20 12.29 15.51 11.51 15.51 10.33ZM22.69 14.08L25.12 14.08L25.12 13.08C25.65 13.78 26.45 14.17 27.43 14.17C29.54 14.17 30.91 12.64 30.91 10.35C30.91 8.01 29.50 6.45 27.37 6.45C26.42 6.45 25.65 6.85 25.12 7.53L25.12 3.70L22.69 3.70ZM25.12 10.28C25.12 9.13 25.80 8.32 26.78 8.32C27.79 8.32 28.48 9.13 28.48 10.28C28.48 11.44 27.79 12.25 26.78 12.25C25.80 12.25 25.12 11.45 25.12 10.28ZM32.28 14.08L34.71 14.08L34.71 3.70L32.28 3.70ZM35.57 6.54L38.71 13.92L38.53 14.29C38.33 14.70 38.02 14.90 37.59 14.90C37.24 14.90 36.95 14.77 36.60 14.49L35.59 16.14C36.26 16.66 36.95 16.91 37.79 16.91C39.19 16.91 40.14 16.24 40.70 14.87L43.96 6.54L41.55 6.54L39.91 11.55L38.07 6.54ZM44.32 13.02C44.32 13.72 44.80 14.20 45.49 14.20C46.17 14.20 46.66 13.72 46.66 13.02C46.66 12.33 46.17 11.86 45.49 11.86C44.80 11.86 44.32 12.33 44.32 13.02ZM48.10 4.37C48.10 5.12 48.64 5.66 49.38 5.66C50.12 5.66 50.65 5.12 50.65 4.37C50.65 3.63 50.12 3.09 49.38 3.09C48.64 3.09 48.10 3.63 48.10 4.37ZM48.16 14.08L50.57 14.08L50.57 6.54L48.16 6.54ZM52.51 14.08L54.94 14.08L54.94 10.09C55.03 9.20 55.59 8.57 56.48 8.57C57.29 8.57 57.81 9.11 57.81 10.00L57.81 14.08L60.21 14.08L60.21 9.32C60.21 7.56 59.12 6.43 57.46 6.43C56.34 6.44 55.47 6.89 54.94 7.77L54.94 6.54L52.51 6.54Z"></path></g><!----><g data-v-423bf9ae="" id="f182d9f7-a502-4df5-b825-0e86a1c3360b" transform="matrix(1.0241754055023193,0,0,1.0241754055023193,-7.748691558837891,-2.275177001953125)" stroke="none" fill="white"><path d="M87.4 24.4L51.6 3.7c-1.6-.9-3.6-.9-5.2 0L10.1 24.6h.4c-1.7.9-2.5 2.7-2.5 4.7v39.5c0 1.9.5 3.6 2.2 4.5l36.4 21.2c.8.5 1.6.7 2.5.7h.2c.9 0 1.8-.2 2.6-.7l36.6-21.2c1.6-.9 2.6-2.7 2.6-4.5V29.3c-.1-2.3-1.6-4.2-3.7-4.9zM49 14.2l25.8 14.9L49 44 23.2 29.1 49 14.2zM18 65.8V37.9L43 53v28L18 65.8zM53 81V52.9l28-15.1v28.1L53 81z"></path></g><!----></svg>